<mxfile host="app.diagrams.net" modified="2022-06-23T12:19:23.975Z" agent="5.0 (Windows NT 10.0; Win64; x64) AppleWebKit/537.36 (KHTML, like Gecko) Chrome/102.0.0.0 Safari/537.36" etag="rRbLAQJTnW4fV08zOYu4" version="20.0.2" type="github" pages="3">
  <diagram id="HZe9n2l0ClVb4Da5Xwr6" name="DataArch_LessonPlan">
    <mxGraphModel dx="2248" dy="1240" grid="1" gridSize="10" guides="1" tooltips="1" connect="1" arrows="1" fold="1" page="1" pageScale="1" pageWidth="1169" pageHeight="827" math="0" shadow="0">
      <root>
        <mxCell id="0" />
        <mxCell id="1" parent="0" />
        <mxCell id="1s-YOk3iyrwi0xUX-N1H-19" value="Data Architecture" style="ellipse;shape=cloud;whiteSpace=wrap;html=1;fillColor=#FFFF33;strokeColor=none;fontFamily=Barlow Condensed;fontSource=https%3A%2F%2Ffonts.googleapis.com%2Fcss%3Ffamily%3DBarlow%2BCondensed;fontSize=32;fontStyle=1" parent="1" vertex="1">
          <mxGeometry x="10" y="20" width="420" height="240" as="geometry" />
        </mxCell>
        <mxCell id="1s-YOk3iyrwi0xUX-N1H-20" value="Safeguarding" style="rounded=1;whiteSpace=wrap;html=1;fontFamily=Barlow Condensed;fontSource=https%3A%2F%2Ffonts.googleapis.com%2Fcss%3Ffamily%3DBarlow%2BCondensed;fontSize=22;fillColor=#FFFF33;strokeColor=none;fontStyle=1" parent="1" vertex="1">
          <mxGeometry x="130" y="385" width="270" height="60" as="geometry" />
        </mxCell>
        <mxCell id="1s-YOk3iyrwi0xUX-N1H-21" value="Courseware" style="rounded=1;whiteSpace=wrap;html=1;fontFamily=Barlow Condensed;fontSource=https%3A%2F%2Ffonts.googleapis.com%2Fcss%3Ffamily%3DBarlow%2BCondensed;fontSize=22;fillColor=#FFFF33;strokeColor=none;fontStyle=1" parent="1" vertex="1">
          <mxGeometry x="130" y="670" width="270" height="60" as="geometry" />
        </mxCell>
        <mxCell id="1s-YOk3iyrwi0xUX-N1H-22" value="Introductions" style="rounded=1;whiteSpace=wrap;html=1;fontFamily=Barlow Condensed;fontSource=https%3A%2F%2Ffonts.googleapis.com%2Fcss%3Ffamily%3DBarlow%2BCondensed;fontSize=22;fillColor=#FFFF33;strokeColor=none;fontStyle=1" parent="1" vertex="1">
          <mxGeometry x="130" y="260" width="270" height="60" as="geometry" />
        </mxCell>
        <mxCell id="1s-YOk3iyrwi0xUX-N1H-23" value="Values &amp;amp; Principles" style="rounded=1;whiteSpace=wrap;html=1;fontFamily=Barlow Condensed;fontSource=https%3A%2F%2Ffonts.googleapis.com%2Fcss%3Ffamily%3DBarlow%2BCondensed;fontSize=22;fillColor=#FFFF33;strokeColor=none;fontStyle=1" parent="1" vertex="1">
          <mxGeometry x="130" y="322" width="270" height="60" as="geometry" />
        </mxCell>
        <UserObject label="https://github.com/michaelburgess-d/modules-public-live" link="https://github.com/michaelburgess-d/decoded-public-code" id="1s-YOk3iyrwi0xUX-N1H-24">
          <mxCell style="text;whiteSpace=wrap;html=1;fontSize=26;fontFamily=Barlow Condensed;fontSource=https%3A%2F%2Ffonts.googleapis.com%2Fcss%3Ffamily%3DBarlow%2BCondensed;fontStyle=0;strokeColor=#006EAF;fillColor=#1ba1e2;fontColor=#ffffff;align=center;labelBorderColor=none;verticalAlign=middle;" parent="1" vertex="1">
            <mxGeometry x="130" y="740" width="650" height="70" as="geometry" />
          </mxCell>
        </UserObject>
        <mxCell id="1s-YOk3iyrwi0xUX-N1H-25" value="Wellbeing" style="rounded=1;whiteSpace=wrap;html=1;fontFamily=Barlow Condensed;fontSource=https%3A%2F%2Ffonts.googleapis.com%2Fcss%3Ffamily%3DBarlow%2BCondensed;fontSize=22;fillColor=#1ba1e2;strokeColor=#006EAF;fontStyle=0;fontColor=#ffffff;" parent="1" vertex="1">
          <mxGeometry x="180" y="450" width="270" height="60" as="geometry" />
        </mxCell>
        <mxCell id="1s-YOk3iyrwi0xUX-N1H-26" value="safeguarding@decoded.com" style="rounded=1;whiteSpace=wrap;html=1;fontFamily=Barlow Condensed;fontSource=https%3A%2F%2Ffonts.googleapis.com%2Fcss%3Ffamily%3DBarlow%2BCondensed;fontSize=22;fillColor=#1ba1e2;strokeColor=#006EAF;fontStyle=0;fontColor=#ffffff;" parent="1" vertex="1">
          <mxGeometry x="180" y="520" width="270" height="60" as="geometry" />
        </mxCell>
        <mxCell id="kHTzqbHaPCYti8Byg7Zm-1" value="Ask in Chat or on Mic" style="rounded=1;whiteSpace=wrap;html=1;fontFamily=Barlow Condensed;fontSource=https%3A%2F%2Ffonts.googleapis.com%2Fcss%3Ffamily%3DBarlow%2BCondensed;fontSize=22;fillColor=#FFFF33;strokeColor=none;fontStyle=1" parent="1" vertex="1">
          <mxGeometry x="130" y="600" width="270" height="60" as="geometry" />
        </mxCell>
        <mxCell id="JRDnlLEvUtz4PWv6ipp6-1" value="Lesson Plan" style="swimlane;fontStyle=0;childLayout=stackLayout;horizontal=1;startSize=30;horizontalStack=0;resizeParent=1;resizeParentMax=0;resizeLast=0;collapsible=1;marginBottom=0;fontFamily=Barlow Condensed;fontSource=https%3A%2F%2Ffonts.googleapis.com%2Fcss%3Ffamily%3DBarlow%2BCondensed;fontSize=22;fillColor=#1ba1e2;fontColor=#ffffff;strokeColor=#006EAF;" vertex="1" parent="1">
          <mxGeometry x="540" y="160" width="560" height="480" as="geometry" />
        </mxCell>
        <mxCell id="JRDnlLEvUtz4PWv6ipp6-2" value="Introductions: Who am I? Who are you?                                    (20 min)" style="text;strokeColor=#6c8ebf;fillColor=#dae8fc;align=left;verticalAlign=middle;spacingLeft=4;spacingRight=4;overflow=hidden;points=[[0,0.5],[1,0.5]];portConstraint=eastwest;rotatable=0;fontFamily=Barlow Condensed;fontSource=https%3A%2F%2Ffonts.googleapis.com%2Fcss%3Ffamily%3DBarlow%2BCondensed;fontSize=22;" vertex="1" parent="JRDnlLEvUtz4PWv6ipp6-1">
          <mxGeometry y="30" width="560" height="30" as="geometry" />
        </mxCell>
        <mxCell id="JRDnlLEvUtz4PWv6ipp6-3" value="Discussion: What is Data Architecture &amp; Data Modelling?       (15 min)" style="text;strokeColor=none;fillColor=#dae8fc;align=left;verticalAlign=middle;spacingLeft=4;spacingRight=4;overflow=hidden;points=[[0,0.5],[1,0.5]];portConstraint=eastwest;rotatable=0;fontFamily=Barlow Condensed;fontSource=https%3A%2F%2Ffonts.googleapis.com%2Fcss%3Ffamily%3DBarlow%2BCondensed;fontSize=22;" vertex="1" parent="JRDnlLEvUtz4PWv6ipp6-1">
          <mxGeometry y="60" width="560" height="30" as="geometry" />
        </mxCell>
        <mxCell id="JRDnlLEvUtz4PWv6ipp6-4" value="Group Activity: Design a Library Data Model                              (20 min)" style="text;align=left;verticalAlign=middle;spacingLeft=4;spacingRight=4;overflow=hidden;points=[[0,0.5],[1,0.5]];portConstraint=eastwest;rotatable=0;fontFamily=Barlow Condensed;fontSource=https%3A%2F%2Ffonts.googleapis.com%2Fcss%3Ffamily%3DBarlow%2BCondensed;fontSize=22;fillColor=#1ba1e2;strokeColor=none;fontStyle=0;fontColor=#ffffff;" vertex="1" parent="JRDnlLEvUtz4PWv6ipp6-1">
          <mxGeometry y="90" width="560" height="30" as="geometry" />
        </mxCell>
        <mxCell id="JRDnlLEvUtz4PWv6ipp6-5" value="1 HOUR MARK                                   BREAK                                   (15 min) " style="text;strokeColor=none;fillColor=#000000;align=left;verticalAlign=middle;spacingLeft=4;spacingRight=4;overflow=hidden;points=[[0,0.5],[1,0.5]];portConstraint=eastwest;rotatable=0;fontFamily=Barlow Condensed;fontSource=https%3A%2F%2Ffonts.googleapis.com%2Fcss%3Ffamily%3DBarlow%2BCondensed;fontSize=22;fontStyle=0;fontColor=#FFFFFF;" vertex="1" parent="JRDnlLEvUtz4PWv6ipp6-1">
          <mxGeometry y="120" width="560" height="30" as="geometry" />
        </mxCell>
        <mxCell id="JRDnlLEvUtz4PWv6ipp6-6" value="Discussion: Review Data Models                                                 (10 min)" style="text;strokeColor=none;fillColor=#dae8fc;align=left;verticalAlign=middle;spacingLeft=4;spacingRight=4;overflow=hidden;points=[[0,0.5],[1,0.5]];portConstraint=eastwest;rotatable=0;fontFamily=Barlow Condensed;fontSource=https%3A%2F%2Ffonts.googleapis.com%2Fcss%3Ffamily%3DBarlow%2BCondensed;fontSize=22;" vertex="1" parent="JRDnlLEvUtz4PWv6ipp6-1">
          <mxGeometry y="150" width="560" height="30" as="geometry" />
        </mxCell>
        <mxCell id="JRDnlLEvUtz4PWv6ipp6-7" value="Discussion: Python for ETL                                                         (20 min)" style="text;strokeColor=none;fillColor=#dae8fc;align=left;verticalAlign=middle;spacingLeft=4;spacingRight=4;overflow=hidden;points=[[0,0.5],[1,0.5]];portConstraint=eastwest;rotatable=0;fontFamily=Barlow Condensed;fontSource=https%3A%2F%2Ffonts.googleapis.com%2Fcss%3Ffamily%3DBarlow%2BCondensed;fontSize=22;" vertex="1" parent="JRDnlLEvUtz4PWv6ipp6-1">
          <mxGeometry y="180" width="560" height="30" as="geometry" />
        </mxCell>
        <mxCell id="JRDnlLEvUtz4PWv6ipp6-8" value="Individual Activity: Extract with Python                                     (20 min)" style="text;align=left;verticalAlign=middle;spacingLeft=4;spacingRight=4;overflow=hidden;points=[[0,0.5],[1,0.5]];portConstraint=eastwest;rotatable=0;fontFamily=Barlow Condensed;fontSource=https%3A%2F%2Ffonts.googleapis.com%2Fcss%3Ffamily%3DBarlow%2BCondensed;fontSize=22;fillColor=#1ba1e2;strokeColor=none;fontStyle=0;fontColor=#ffffff;" vertex="1" parent="JRDnlLEvUtz4PWv6ipp6-1">
          <mxGeometry y="210" width="560" height="30" as="geometry" />
        </mxCell>
        <mxCell id="JRDnlLEvUtz4PWv6ipp6-9" value="Discussion: Review (10 min)" style="text;strokeColor=none;fillColor=#dae8fc;align=left;verticalAlign=middle;spacingLeft=4;spacingRight=4;overflow=hidden;points=[[0,0.5],[1,0.5]];portConstraint=eastwest;rotatable=0;fontFamily=Barlow Condensed;fontSource=https%3A%2F%2Ffonts.googleapis.com%2Fcss%3Ffamily%3DBarlow%2BCondensed;fontSize=22;" vertex="1" parent="JRDnlLEvUtz4PWv6ipp6-1">
          <mxGeometry y="240" width="560" height="30" as="geometry" />
        </mxCell>
        <mxCell id="JRDnlLEvUtz4PWv6ipp6-10" value="2 HOUR MARK                                 BREAK                                     (5 min)" style="text;strokeColor=none;fillColor=#000000;align=left;verticalAlign=middle;spacingLeft=4;spacingRight=4;overflow=hidden;points=[[0,0.5],[1,0.5]];portConstraint=eastwest;rotatable=0;fontFamily=Barlow Condensed;fontSource=https%3A%2F%2Ffonts.googleapis.com%2Fcss%3Ffamily%3DBarlow%2BCondensed;fontSize=22;fontStyle=0;fontColor=#FFFFFF;" vertex="1" parent="JRDnlLEvUtz4PWv6ipp6-1">
          <mxGeometry y="270" width="560" height="30" as="geometry" />
        </mxCell>
        <mxCell id="JRDnlLEvUtz4PWv6ipp6-11" value="Discussion: Transform &amp; Load                                                    (10 min)" style="text;strokeColor=none;fillColor=#dae8fc;align=left;verticalAlign=middle;spacingLeft=4;spacingRight=4;overflow=hidden;points=[[0,0.5],[1,0.5]];portConstraint=eastwest;rotatable=0;fontFamily=Barlow Condensed;fontSource=https%3A%2F%2Ffonts.googleapis.com%2Fcss%3Ffamily%3DBarlow%2BCondensed;fontSize=22;" vertex="1" parent="JRDnlLEvUtz4PWv6ipp6-1">
          <mxGeometry y="300" width="560" height="30" as="geometry" />
        </mxCell>
        <mxCell id="JRDnlLEvUtz4PWv6ipp6-12" value="Group Activity: Transform &amp; Load                                              (30 min)  " style="text;align=left;verticalAlign=middle;spacingLeft=4;spacingRight=4;overflow=hidden;points=[[0,0.5],[1,0.5]];portConstraint=eastwest;rotatable=0;fontFamily=Barlow Condensed;fontSource=https%3A%2F%2Ffonts.googleapis.com%2Fcss%3Ffamily%3DBarlow%2BCondensed;fontSize=22;fillColor=#1ba1e2;strokeColor=none;fontStyle=0;fontColor=#ffffff;" vertex="1" parent="JRDnlLEvUtz4PWv6ipp6-1">
          <mxGeometry y="330" width="560" height="30" as="geometry" />
        </mxCell>
        <mxCell id="JRDnlLEvUtz4PWv6ipp6-13" value="3 HOUR MARK                                 " style="text;strokeColor=none;fillColor=#000000;align=left;verticalAlign=middle;spacingLeft=4;spacingRight=4;overflow=hidden;points=[[0,0.5],[1,0.5]];portConstraint=eastwest;rotatable=0;fontFamily=Barlow Condensed;fontSource=https%3A%2F%2Ffonts.googleapis.com%2Fcss%3Ffamily%3DBarlow%2BCondensed;fontSize=22;fontStyle=0;fontColor=#FFFFFF;" vertex="1" parent="JRDnlLEvUtz4PWv6ipp6-1">
          <mxGeometry y="360" width="560" height="30" as="geometry" />
        </mxCell>
        <mxCell id="JRDnlLEvUtz4PWv6ipp6-14" value="Discussion: Review (10 min)" style="text;strokeColor=none;fillColor=#dae8fc;align=left;verticalAlign=middle;spacingLeft=4;spacingRight=4;overflow=hidden;points=[[0,0.5],[1,0.5]];portConstraint=eastwest;rotatable=0;fontFamily=Barlow Condensed;fontSource=https%3A%2F%2Ffonts.googleapis.com%2Fcss%3Ffamily%3DBarlow%2BCondensed;fontSize=22;" vertex="1" parent="JRDnlLEvUtz4PWv6ipp6-1">
          <mxGeometry y="390" width="560" height="30" as="geometry" />
        </mxCell>
        <mxCell id="JRDnlLEvUtz4PWv6ipp6-15" value="Individual Activity: Run the Report                                              (10 min)" style="text;align=left;verticalAlign=middle;spacingLeft=4;spacingRight=4;overflow=hidden;points=[[0,0.5],[1,0.5]];portConstraint=eastwest;rotatable=0;fontFamily=Barlow Condensed;fontSource=https%3A%2F%2Ffonts.googleapis.com%2Fcss%3Ffamily%3DBarlow%2BCondensed;fontSize=22;fillColor=#1ba1e2;strokeColor=none;fontStyle=0;fontColor=#ffffff;" vertex="1" parent="JRDnlLEvUtz4PWv6ipp6-1">
          <mxGeometry y="420" width="560" height="30" as="geometry" />
        </mxCell>
        <mxCell id="JRDnlLEvUtz4PWv6ipp6-16" value="Next Steps, Review &amp; Finish (5 min)" style="text;strokeColor=none;fillColor=#dae8fc;align=left;verticalAlign=middle;spacingLeft=4;spacingRight=4;overflow=hidden;points=[[0,0.5],[1,0.5]];portConstraint=eastwest;rotatable=0;fontFamily=Barlow Condensed;fontSource=https%3A%2F%2Ffonts.googleapis.com%2Fcss%3Ffamily%3DBarlow%2BCondensed;fontSize=22;" vertex="1" parent="JRDnlLEvUtz4PWv6ipp6-1">
          <mxGeometry y="450" width="560" height="30" as="geometry" />
        </mxCell>
      </root>
    </mxGraphModel>
  </diagram>
  <diagram id="S3rxQqn5xhS6ePLu4Hfa" name="MindMap">
    <mxGraphModel dx="3417" dy="2067" grid="1" gridSize="10" guides="1" tooltips="1" connect="1" arrows="1" fold="1" page="1" pageScale="1" pageWidth="1169" pageHeight="827" math="0" shadow="0">
      <root>
        <mxCell id="0" />
        <mxCell id="1" parent="0" />
        <mxCell id="CWn8RSCjkhXgX-i-o0oG-1" value="What is relevant to&lt;br style=&quot;font-size: 29px;&quot;&gt;&amp;nbsp;Data Architecture?" style="ellipse;shape=cloud;whiteSpace=wrap;html=1;fillColor=#FFFF33;strokeColor=none;fontFamily=Barlow Condensed;fontSource=https%3A%2F%2Ffonts.googleapis.com%2Fcss%3Ffamily%3DBarlow%2BCondensed;fontSize=29;fontStyle=1" parent="1" vertex="1">
          <mxGeometry x="-1169" y="-827" width="360" height="207" as="geometry" />
        </mxCell>
        <mxCell id="S35xVs9JK2X4CDbCrpay-1" value="What are Data Models &amp;amp; ERDs?" style="ellipse;shape=cloud;whiteSpace=wrap;html=1;fillColor=#FFFF33;strokeColor=none;fontFamily=Barlow Condensed;fontSource=https%3A%2F%2Ffonts.googleapis.com%2Fcss%3Ffamily%3DBarlow%2BCondensed;fontSize=20;fontStyle=1" vertex="1" parent="1">
          <mxGeometry x="-340" y="-210" width="320" height="184" as="geometry" />
        </mxCell>
      </root>
    </mxGraphModel>
  </diagram>
  <diagram id="_Nr4Ol97FRj3l-Hppn7c" name="ERD">
    <mxGraphModel dx="1635" dy="1729" grid="1" gridSize="10" guides="1" tooltips="1" connect="1" arrows="1" fold="1" page="1" pageScale="1" pageWidth="1169" pageHeight="827" math="0" shadow="0">
      <root>
        <mxCell id="0" />
        <mxCell id="1" parent="0" />
        <mxCell id="jIQxVUFv1uK_PBg2IfuR-1" value="What kind of &lt;br&gt;business should we model &lt;br&gt;with an ERD?" style="ellipse;shape=cloud;whiteSpace=wrap;html=1;fillColor=#FFFF33;strokeColor=none;fontFamily=Barlow Condensed;fontSource=https%3A%2F%2Ffonts.googleapis.com%2Fcss%3Ffamily%3DBarlow%2BCondensed;fontSize=24;fontStyle=1" parent="1" vertex="1">
          <mxGeometry x="20" y="-800" width="330" height="180" as="geometry" />
        </mxCell>
        <mxCell id="IlQ_jplJWvfgLtizEvv0-1" value="Group Challenge (20 min)" style="ellipse;shape=cloud;whiteSpace=wrap;html=1;fillColor=#1ba1e2;strokeColor=#006EAF;fontFamily=Barlow Condensed;fontSource=https%3A%2F%2Ffonts.googleapis.com%2Fcss%3Ffamily%3DBarlow%2BCondensed;fontSize=24;fontStyle=0;fontColor=#ffffff;" vertex="1" parent="1">
          <mxGeometry x="830" y="-180" width="300" height="150" as="geometry" />
        </mxCell>
      </root>
    </mxGraphModel>
  </diagram>
</mxfile>
